<svg xmlns="http://www.w3.org/2000/svg" width="1216" height="430" viewBox="0 0 1216 430">
  <title>Rinco logo reconstructed from provided artwork</title>
  <g fill="#f5ede4" fill-rule="evenodd">
    <path d="M 500 257 L 500 417 L 501 418 L 543 418 L 544 417 L 545 418 L 546 417 L 547 417 L 548 418 L 549 418 L 550 417 L 550 257 Z M 510 268 L 511 267 L 539 267 L 540 268 L 540 406 L 539 407 L 511 407 L 510 406 Z"/><path d="M 1121 256 L 1120 257 L 1116 257 L 1115 258 L 1112 258 L 1111 259 L 1108 259 L 1107 260 L 1105 260 L 1104 261 L 1103 261 L 1102 262 L 1100 262 L 1099 263 L 1098 263 L 1097 264 L 1096 264 L 1095 265 L 1094 265 L 1093 266 L 1092 266 L 1091 267 L 1090 267 L 1088 269 L 1087 269 L 1083 273 L 1082 273 L 1077 278 L 1076 278 L 1073 281 L 1073 282 L 1072 283 L 1071 283 L 1071 284 L 1067 288 L 1067 289 L 1064 292 L 1064 294 L 1061 297 L 1061 298 L 1060 299 L 1060 300 L 1059 301 L 1059 302 L 1058 303 L 1058 304 L 1057 305 L 1057 307 L 1056 308 L 1056 310 L 1055 311 L 1055 313 L 1054 314 L 1054 316 L 1053 317 L 1053 321 L 1052 322 L 1052 327 L 1051 328 L 1051 347 L 1052 348 L 1052 353 L 1053 354 L 1053 357 L 1054 358 L 1054 361 L 1055 362 L 1055 364 L 1056 365 L 1056 366 L 1057 367 L 1057 369 L 1058 370 L 1058 371 L 1059 372 L 1059 373 L 1060 374 L 1060 375 L 1061 376 L 1061 377 L 1062 378 L 1062 379 L 1064 381 L 1064 382 L 1066 384 L 1066 385 L 1069 388 L 1069 389 L 1078 398 L 1079 398 L 1080 399 L 1080 400 L 1081 401 L 1082 401 L 1085 404 L 1086 404 L 1088 406 L 1089 406 L 1090 407 L 1091 407 L 1093 409 L 1094 409 L 1095 410 L 1096 410 L 1097 411 L 1098 411 L 1099 412 L 1100 412 L 1101 413 L 1103 413 L 1104 414 L 1106 414 L 1107 415 L 1109 415 L 1110 416 L 1113 416 L 1114 417 L 1117 417 L 1118 418 L 1125 418 L 1126 419 L 1139 419 L 1140 418 L 1147 418 L 1148 417 L 1151 417 L 1152 416 L 1155 416 L 1156 415 L 1158 415 L 1159 414 L 1161 414 L 1162 413 L 1164 413 L 1165 412 L 1166 412 L 1167 411 L 1168 411 L 1169 410 L 1170 410 L 1171 409 L 1172 409 L 1173 408 L 1174 408 L 1176 406 L 1177 406 L 1178 405 L 1179 405 L 1183 401 L 1184 401 L 1197 388 L 1197 387 L 1199 385 L 1199 384 L 1201 382 L 1201 381 L 1203 379 L 1203 378 L 1204 377 L 1204 376 L 1205 375 L 1205 374 L 1206 373 L 1206 372 L 1207 371 L 1207 370 L 1208 369 L 1208 368 L 1209 367 L 1209 365 L 1210 364 L 1210 362 L 1211 361 L 1211 358 L 1212 357 L 1212 355 L 1213 354 L 1213 348 L 1214 347 L 1214 327 L 1213 326 L 1213 321 L 1212 320 L 1212 317 L 1211 316 L 1211 314 L 1210 313 L 1210 311 L 1209 310 L 1209 308 L 1208 307 L 1208 306 L 1207 305 L 1207 303 L 1206 302 L 1206 301 L 1205 300 L 1205 299 L 1203 297 L 1203 296 L 1202 295 L 1202 294 L 1200 292 L 1200 291 L 1198 289 L 1198 288 L 1194 284 L 1194 283 L 1186 275 L 1185 275 L 1181 271 L 1180 271 L 1178 269 L 1177 269 L 1175 267 L 1174 267 L 1173 266 L 1172 266 L 1171 265 L 1170 265 L 1169 264 L 1168 264 L 1167 263 L 1166 263 L 1165 262 L 1163 262 L 1162 261 L 1161 261 L 1160 260 L 1158 260 L 1157 259 L 1154 259 L 1153 258 L 1150 258 L 1149 257 L 1145 257 L 1144 256 Z M 1131 269 L 1132 268 L 1134 268 L 1135 269 L 1143 269 L 1144 270 L 1148 270 L 1149 271 L 1152 271 L 1153 272 L 1155 272 L 1156 273 L 1158 273 L 1159 274 L 1160 274 L 1161 275 L 1162 275 L 1163 276 L 1164 276 L 1165 277 L 1166 277 L 1168 279 L 1169 279 L 1170 280 L 1171 280 L 1173 282 L 1174 282 L 1187 295 L 1187 296 L 1190 299 L 1190 300 L 1191 301 L 1191 302 L 1193 304 L 1193 305 L 1194 306 L 1194 307 L 1195 308 L 1195 309 L 1196 310 L 1196 312 L 1197 313 L 1197 314 L 1198 315 L 1198 317 L 1199 318 L 1199 321 L 1200 322 L 1200 326 L 1201 327 L 1201 347 L 1200 348 L 1200 352 L 1199 353 L 1199 356 L 1198 357 L 1198 359 L 1197 360 L 1197 362 L 1196 363 L 1196 364 L 1195 365 L 1195 367 L 1194 368 L 1194 369 L 1192 371 L 1192 372 L 1191 373 L 1191 374 L 1188 377 L 1188 378 L 1185 381 L 1185 382 L 1177 390 L 1176 390 L 1173 393 L 1172 393 L 1170 395 L 1169 395 L 1167 397 L 1166 397 L 1165 398 L 1164 398 L 1163 399 L 1162 399 L 1161 400 L 1160 400 L 1159 401 L 1157 401 L 1156 402 L 1155 402 L 1154 403 L 1151 403 L 1150 404 L 1147 404 L 1146 405 L 1141 405 L 1140 406 L 1125 406 L 1124 405 L 1119 405 L 1118 404 L 1115 404 L 1114 403 L 1111 403 L 1110 402 L 1109 402 L 1108 401 L 1106 401 L 1105 400 L 1104 400 L 1103 399 L 1102 399 L 1101 398 L 1100 398 L 1099 397 L 1098 397 L 1096 395 L 1095 395 L 1093 393 L 1092 393 L 1088 389 L 1087 389 L 1080 382 L 1080 381 L 1077 378 L 1077 377 L 1074 374 L 1074 373 L 1073 372 L 1073 371 L 1072 370 L 1072 369 L 1071 368 L 1071 367 L 1070 366 L 1070 365 L 1069 364 L 1069 363 L 1068 362 L 1068 360 L 1067 359 L 1067 357 L 1066 356 L 1066 353 L 1065 352 L 1065 348 L 1064 347 L 1064 328 L 1065 327 L 1065 322 L 1066 321 L 1066 318 L 1067 317 L 1067 315 L 1068 314 L 1068 313 L 1069 312 L 1069 310 L 1070 309 L 1070 308 L 1071 307 L 1071 306 L 1072 305 L 1072 304 L 1074 302 L 1074 301 L 1075 300 L 1075 299 L 1078 296 L 1078 295 L 1090 283 L 1091 283 L 1094 280 L 1095 280 L 1097 278 L 1098 278 L 1099 277 L 1100 277 L 1101 276 L 1102 276 L 1103 275 L 1104 275 L 1105 274 L 1106 274 L 1107 273 L 1109 273 L 1110 272 L 1112 272 L 1113 271 L 1115 271 L 1116 270 L 1120 270 L 1121 269 Z"/><path d="M 992 255 L 991 256 L 909 256 L 908 257 L 904 257 L 903 258 L 900 258 L 899 259 L 896 259 L 895 260 L 894 260 L 893 261 L 891 261 L 890 262 L 889 262 L 888 263 L 887 263 L 886 264 L 885 264 L 884 265 L 883 265 L 882 266 L 881 266 L 880 267 L 879 267 L 877 269 L 876 269 L 875 270 L 874 270 L 870 274 L 869 274 L 857 286 L 857 287 L 854 290 L 854 291 L 852 293 L 852 294 L 851 295 L 851 296 L 849 298 L 849 299 L 848 300 L 848 301 L 847 302 L 847 303 L 846 304 L 846 306 L 845 307 L 845 308 L 844 309 L 844 311 L 843 312 L 843 315 L 842 316 L 842 319 L 841 320 L 841 324 L 840 325 L 840 333 L 839 334 L 839 340 L 840 341 L 840 350 L 841 351 L 841 355 L 842 356 L 842 359 L 843 360 L 843 362 L 844 363 L 844 365 L 845 366 L 845 368 L 846 369 L 846 370 L 847 371 L 847 372 L 848 373 L 848 374 L 849 375 L 849 376 L 850 377 L 850 378 L 851 379 L 851 380 L 854 383 L 854 384 L 856 386 L 856 387 L 861 392 L 861 393 L 862 393 L 864 395 L 864 396 L 866 398 L 867 398 L 872 403 L 873 403 L 875 405 L 876 405 L 878 407 L 879 407 L 880 408 L 881 408 L 882 409 L 883 409 L 885 411 L 887 411 L 888 412 L 889 412 L 890 413 L 892 413 L 893 414 L 894 414 L 895 415 L 897 415 L 898 416 L 901 416 L 902 417 L 906 417 L 907 418 L 913 418 L 914 419 L 996 419 L 996 406 L 914 406 L 913 405 L 908 405 L 907 404 L 903 404 L 902 403 L 900 403 L 899 402 L 897 402 L 896 401 L 895 401 L 894 400 L 893 400 L 892 399 L 891 399 L 890 398 L 889 398 L 888 397 L 887 397 L 886 396 L 885 396 L 883 394 L 882 394 L 879 391 L 878 391 L 867 380 L 867 379 L 864 376 L 864 375 L 862 373 L 862 372 L 861 371 L 861 370 L 860 369 L 860 368 L 859 367 L 859 366 L 858 365 L 858 364 L 857 363 L 857 362 L 856 361 L 856 359 L 855 358 L 855 355 L 854 354 L 854 350 L 853 349 L 853 343 L 852 342 L 852 333 L 853 332 L 853 325 L 854 324 L 854 321 L 855 320 L 855 317 L 856 316 L 856 314 L 857 313 L 857 311 L 858 310 L 858 309 L 859 308 L 859 307 L 860 306 L 860 305 L 862 303 L 862 302 L 863 301 L 863 300 L 865 298 L 865 297 L 870 292 L 870 291 L 872 289 L 873 289 L 873 288 L 877 284 L 878 284 L 881 281 L 882 281 L 884 279 L 885 279 L 886 278 L 887 278 L 889 276 L 890 276 L 891 275 L 892 275 L 893 274 L 895 274 L 896 273 L 897 273 L 898 272 L 900 272 L 901 271 L 904 271 L 905 270 L 908 270 L 909 269 L 917 269 L 918 268 L 997 268 L 997 256 L 996 255 L 995 256 L 993 256 Z"/><path d="M 693 255 L 692 256 L 687 256 L 686 257 L 683 257 L 682 258 L 679 258 L 678 259 L 677 259 L 676 260 L 674 260 L 673 261 L 671 261 L 670 262 L 669 262 L 668 263 L 667 263 L 666 264 L 665 264 L 664 265 L 663 265 L 661 267 L 660 267 L 659 268 L 658 268 L 655 271 L 654 271 L 651 274 L 650 274 L 645 279 L 645 280 L 644 281 L 643 281 L 640 284 L 640 285 L 637 288 L 637 289 L 634 292 L 634 293 L 633 294 L 633 295 L 632 296 L 632 297 L 631 298 L 631 299 L 629 301 L 629 303 L 628 304 L 628 305 L 627 306 L 627 308 L 626 309 L 626 311 L 625 312 L 625 314 L 624 315 L 624 318 L 623 319 L 623 323 L 622 324 L 622 351 L 621 352 L 621 416 L 634 416 L 634 332 L 635 331 L 635 324 L 636 323 L 636 320 L 637 319 L 637 316 L 638 315 L 638 313 L 639 312 L 639 311 L 640 310 L 640 308 L 641 307 L 641 306 L 643 304 L 643 303 L 644 302 L 644 301 L 645 300 L 645 299 L 648 296 L 648 295 L 652 291 L 652 290 L 653 289 L 654 289 L 655 288 L 655 287 L 657 285 L 658 285 L 662 281 L 663 281 L 665 279 L 666 279 L 668 277 L 669 277 L 670 276 L 671 276 L 672 275 L 673 275 L 674 274 L 675 274 L 676 273 L 677 273 L 678 272 L 680 272 L 681 271 L 683 271 L 684 270 L 687 270 L 688 269 L 692 269 L 693 268 L 713 268 L 714 269 L 718 269 L 719 270 L 722 270 L 723 271 L 725 271 L 726 272 L 728 272 L 729 273 L 730 273 L 731 274 L 732 274 L 733 275 L 734 275 L 735 276 L 736 276 L 737 277 L 738 277 L 739 278 L 740 278 L 743 281 L 744 281 L 746 283 L 747 283 L 757 293 L 757 294 L 759 296 L 759 297 L 761 299 L 761 300 L 763 302 L 763 303 L 764 304 L 764 305 L 765 306 L 765 307 L 766 308 L 766 309 L 767 310 L 767 311 L 768 312 L 768 314 L 769 315 L 769 317 L 770 318 L 770 322 L 771 323 L 771 328 L 772 329 L 772 418 L 773 419 L 784 419 L 785 418 L 785 330 L 784 329 L 784 322 L 783 321 L 783 317 L 782 316 L 782 314 L 781 313 L 781 311 L 780 310 L 780 308 L 779 307 L 779 306 L 778 305 L 778 303 L 777 302 L 777 301 L 776 300 L 776 299 L 775 298 L 775 297 L 774 296 L 774 295 L 772 293 L 772 292 L 770 290 L 770 289 L 766 285 L 766 284 L 760 278 L 760 277 L 759 277 L 754 272 L 753 272 L 751 270 L 750 270 L 748 268 L 747 268 L 745 266 L 744 266 L 743 265 L 742 265 L 741 264 L 740 264 L 739 263 L 738 263 L 737 262 L 736 262 L 735 261 L 734 261 L 733 260 L 731 260 L 730 259 L 728 259 L 727 258 L 724 258 L 723 257 L 720 257 L 719 256 L 714 256 L 713 255 Z"/><path d="M 1 1 L 1 14 L 50 14 L 51 15 L 51 384 L 50 385 L 1 385 L 1 413 L 142 413 L 142 385 L 106 385 L 105 384 L 105 196 L 106 195 L 170 195 L 171 196 L 172 196 L 190 214 L 191 214 L 208 231 L 209 231 L 226 248 L 227 248 L 245 266 L 246 266 L 264 284 L 265 284 L 282 301 L 283 301 L 301 319 L 302 319 L 320 337 L 321 337 L 338 354 L 339 354 L 357 372 L 358 372 L 375 389 L 376 389 L 395 408 L 396 408 L 405 417 L 406 417 L 407 418 L 427 418 L 421 412 L 420 412 L 404 396 L 403 396 L 384 377 L 383 377 L 365 359 L 364 359 L 346 341 L 345 341 L 327 323 L 326 323 L 309 306 L 308 306 L 290 288 L 289 288 L 271 270 L 270 270 L 252 252 L 251 252 L 233 234 L 232 234 L 214 216 L 213 216 L 195 198 L 194 198 L 193 197 L 193 196 L 194 195 L 321 195 L 322 194 L 329 194 L 330 193 L 335 193 L 336 192 L 339 192 L 340 191 L 344 191 L 345 190 L 347 190 L 348 189 L 350 189 L 351 188 L 353 188 L 354 187 L 355 187 L 356 186 L 358 186 L 359 185 L 360 185 L 361 184 L 362 184 L 363 183 L 364 183 L 365 182 L 366 182 L 367 181 L 368 181 L 369 180 L 370 180 L 372 178 L 373 178 L 375 176 L 376 176 L 379 173 L 380 173 L 385 168 L 386 168 L 389 165 L 389 164 L 395 158 L 395 157 L 398 154 L 398 153 L 400 151 L 400 150 L 401 149 L 401 148 L 403 146 L 403 145 L 404 144 L 404 143 L 405 142 L 405 141 L 406 140 L 406 139 L 407 138 L 407 136 L 408 135 L 408 134 L 409 133 L 409 131 L 410 130 L 410 127 L 411 126 L 411 124 L 412 123 L 412 120 L 413 119 L 413 113 L 414 112 L 414 88 L 413 87 L 413 82 L 412 81 L 412 77 L 411 76 L 411 74 L 410 73 L 410 70 L 409 69 L 409 67 L 408 66 L 408 65 L 407 64 L 407 62 L 406 61 L 406 60 L 405 59 L 405 58 L 404 57 L 404 55 L 403 54 L 403 53 L 401 51 L 401 50 L 399 48 L 399 47 L 398 46 L 398 45 L 396 43 L 396 42 L 393 39 L 393 38 L 378 23 L 377 23 L 374 20 L 373 20 L 371 18 L 370 18 L 368 16 L 367 16 L 366 15 L 365 15 L 364 14 L 363 14 L 362 13 L 361 13 L 360 12 L 359 12 L 358 11 L 357 11 L 356 10 L 355 10 L 354 9 L 352 9 L 351 8 L 349 8 L 348 7 L 346 7 L 345 6 L 343 6 L 342 5 L 339 5 L 338 4 L 335 4 L 334 3 L 330 3 L 329 2 L 322 2 L 321 1 Z M 105 15 L 106 14 L 322 14 L 323 15 L 328 15 L 329 16 L 333 16 L 334 17 L 337 17 L 338 18 L 341 18 L 342 19 L 344 19 L 345 20 L 346 20 L 347 21 L 349 21 L 350 22 L 351 22 L 352 23 L 353 23 L 354 24 L 355 24 L 356 25 L 357 25 L 358 26 L 359 26 L 360 27 L 361 27 L 363 29 L 364 29 L 367 32 L 368 32 L 371 35 L 372 35 L 373 36 L 373 37 L 374 37 L 376 39 L 376 40 L 377 40 L 381 44 L 381 45 L 385 49 L 385 50 L 387 52 L 387 53 L 389 55 L 389 56 L 391 58 L 391 59 L 392 60 L 392 61 L 393 62 L 393 63 L 394 64 L 394 66 L 395 67 L 395 68 L 396 69 L 396 71 L 397 72 L 397 74 L 398 75 L 398 77 L 399 78 L 399 81 L 400 82 L 400 87 L 401 88 L 401 112 L 400 113 L 400 118 L 399 119 L 399 122 L 398 123 L 398 125 L 397 126 L 397 128 L 396 129 L 396 131 L 395 132 L 395 133 L 394 134 L 394 135 L 393 136 L 393 137 L 392 138 L 392 139 L 391 140 L 391 141 L 389 143 L 389 144 L 387 146 L 387 147 L 385 149 L 385 150 L 373 162 L 372 162 L 369 165 L 368 165 L 366 167 L 365 167 L 363 169 L 362 169 L 361 170 L 360 170 L 359 171 L 358 171 L 357 172 L 356 172 L 355 173 L 354 173 L 353 174 L 352 174 L 351 175 L 349 175 L 348 176 L 346 176 L 345 177 L 343 177 L 342 178 L 340 178 L 339 179 L 335 179 L 334 180 L 330 180 L 329 181 L 323 181 L 322 182 L 106 182 L 105 181 Z"/>
  </g>
  <g fill="#c0392b" fill-rule="evenodd">
    <path d="M 520 170 L 519 171 L 517 171 L 515 173 L 514 172 L 513 173 L 512 173 L 510 175 L 509 175 L 507 177 L 507 178 L 505 180 L 504 180 L 504 182 L 503 183 L 502 183 L 502 184 L 501 185 L 501 186 L 500 187 L 500 189 L 499 190 L 499 202 L 500 203 L 500 206 L 501 207 L 501 208 L 502 209 L 502 210 L 505 213 L 505 214 L 507 216 L 508 216 L 511 219 L 512 219 L 513 220 L 514 220 L 515 221 L 517 221 L 518 222 L 522 222 L 523 223 L 527 223 L 528 222 L 532 222 L 533 221 L 535 221 L 536 220 L 537 220 L 538 219 L 539 219 L 542 216 L 543 216 L 545 214 L 545 213 L 548 210 L 548 209 L 549 208 L 549 205 L 551 203 L 551 190 L 550 189 L 550 187 L 549 186 L 549 185 L 548 184 L 548 183 L 546 181 L 546 180 L 541 175 L 540 175 L 538 173 L 537 173 L 536 172 L 534 172 L 533 171 L 530 171 L 529 170 L 528 171 L 527 170 Z"/>
  </g>
</svg>